<svg xmlns="http://www.w3.org/2000/svg" viewBox="0 0 640 184" width="640" height="184" role="img"><title>Who sparked, offered options for, chose and refined each of 41 key ideas in Gramlet</title><style>
svg{--ink:#1d1b18;--muted:#6a6359;--grid:#e7dfd2;--you:#1a6aa8;--ai:#d4682a;--shared:#7a5bb0;--unknown:#b3aca2}
@media (prefers-color-scheme: dark){svg{--ink:#ece8e1;--muted:#a39d93;--grid:#2e3137;--you:#3f8fcf;--ai:#d9773a;--shared:#9278d4;--unknown:#5b5f66}}
text{font-family:system-ui,-apple-system,"Segoe UI",Roboto,sans-serif;font-size:15px;fill:var(--muted)}
.ink{fill:var(--ink)} .b{font-weight:600} .s{font-size:13.5px}
.grid{stroke:var(--grid);stroke-width:1} .you{fill:var(--you)} .ai{fill:var(--ai)} .shared{fill:var(--shared)} .unknown{fill:var(--unknown)}
.lyou{stroke:var(--you)} .lai{stroke:var(--ai)} .mark{stroke:var(--muted);stroke-dasharray:4 4;stroke-width:1}
</style><text x="0" y="28.0" class="ink">Spark</text><rect x="96.0" y="10" width="11.5" height="26" rx="2.5" class="you"/><rect x="109.1" y="10" width="11.5" height="26" rx="2.5" class="you"/><rect x="122.2" y="10" width="11.5" height="26" rx="2.5" class="you"/><rect x="135.3" y="10" width="11.5" height="26" rx="2.5" class="you"/><rect x="148.4" y="10" width="11.5" height="26" rx="2.5" class="you"/><rect x="161.5" y="10" width="11.5" height="26" rx="2.5" class="you"/><rect x="174.6" y="10" width="11.5" height="26" rx="2.5" class="you"/><rect x="187.7" y="10" width="11.5" height="26" rx="2.5" class="you"/><rect x="200.8" y="10" width="11.5" height="26" rx="2.5" class="you"/><rect x="213.9" y="10" width="11.5" height="26" rx="2.5" class="you"/><rect x="227.0" y="10" width="11.5" height="26" rx="2.5" class="you"/><rect x="240.1" y="10" width="11.5" height="26" rx="2.5" class="you"/><rect x="253.2" y="10" width="11.5" height="26" rx="2.5" class="you"/><rect x="266.3" y="10" width="11.5" height="26" rx="2.5" class="you"/><rect x="279.4" y="10" width="11.5" height="26" rx="2.5" class="you"/><rect x="292.5" y="10" width="11.5" height="26" rx="2.5" class="you"/><rect x="305.6" y="10" width="11.5" height="26" rx="2.5" class="you"/><rect x="318.7" y="10" width="11.5" height="26" rx="2.5" class="you"/><rect x="331.8" y="10" width="11.5" height="26" rx="2.5" class="you"/><rect x="344.9" y="10" width="11.5" height="26" rx="2.5" class="you"/><rect x="358.0" y="10" width="11.5" height="26" rx="2.5" class="you"/><rect x="371.1" y="10" width="11.5" height="26" rx="2.5" class="you"/><rect x="384.2" y="10" width="11.5" height="26" rx="2.5" class="you"/><rect x="397.3" y="10" width="11.5" height="26" rx="2.5" class="you"/><rect x="410.4" y="10" width="11.5" height="26" rx="2.5" class="you"/><rect x="423.5" y="10" width="11.5" height="26" rx="2.5" class="you"/><rect x="436.6" y="10" width="11.5" height="26" rx="2.5" class="you"/><rect x="449.7" y="10" width="11.5" height="26" rx="2.5" class="you"/><rect x="462.8" y="10" width="11.5" height="26" rx="2.5" class="you"/><rect x="475.9" y="10" width="11.5" height="26" rx="2.5" class="shared"/><rect x="489.0" y="10" width="11.5" height="26" rx="2.5" class="shared"/><rect x="502.1" y="10" width="11.5" height="26" rx="2.5" class="shared"/><rect x="515.2" y="10" width="11.5" height="26" rx="2.5" class="shared"/><rect x="528.3" y="10" width="11.5" height="26" rx="2.5" class="shared"/><rect x="541.4" y="10" width="11.5" height="26" rx="2.5" class="ai"/><rect x="554.5" y="10" width="11.5" height="26" rx="2.5" class="ai"/><rect x="567.6" y="10" width="11.5" height="26" rx="2.5" class="ai"/><rect x="580.7" y="10" width="11.5" height="26" rx="2.5" class="ai"/><rect x="593.8" y="10" width="11.5" height="26" rx="2.5" class="unknown"/><rect x="606.9" y="10" width="11.5" height="26" rx="2.5" class="unknown"/><rect x="620.0" y="10" width="11.5" height="26" rx="2.5" class="unknown"/><text x="0" y="62.0" class="ink">Options</text><rect x="96.0" y="44" width="11.5" height="26" rx="2.5" class="you"/><rect x="109.1" y="44" width="11.5" height="26" rx="2.5" class="you"/><rect x="122.2" y="44" width="11.5" height="26" rx="2.5" class="shared"/><rect x="135.3" y="44" width="11.5" height="26" rx="2.5" class="shared"/><rect x="148.4" y="44" width="11.5" height="26" rx="2.5" class="shared"/><rect x="161.5" y="44" width="11.5" height="26" rx="2.5" class="shared"/><rect x="174.6" y="44" width="11.5" height="26" rx="2.5" class="shared"/><rect x="187.7" y="44" width="11.5" height="26" rx="2.5" class="shared"/><rect x="200.8" y="44" width="11.5" height="26" rx="2.5" class="shared"/><rect x="213.9" y="44" width="11.5" height="26" rx="2.5" class="shared"/><rect x="227.0" y="44" width="11.5" height="26" rx="2.5" class="shared"/><rect x="240.1" y="44" width="11.5" height="26" rx="2.5" class="shared"/><rect x="253.2" y="44" width="11.5" height="26" rx="2.5" class="shared"/><rect x="266.3" y="44" width="11.5" height="26" rx="2.5" class="shared"/><rect x="279.4" y="44" width="11.5" height="26" rx="2.5" class="shared"/><rect x="292.5" y="44" width="11.5" height="26" rx="2.5" class="shared"/><rect x="305.6" y="44" width="11.5" height="26" rx="2.5" class="shared"/><rect x="318.7" y="44" width="11.5" height="26" rx="2.5" class="shared"/><rect x="331.8" y="44" width="11.5" height="26" rx="2.5" class="shared"/><rect x="344.9" y="44" width="11.5" height="26" rx="2.5" class="shared"/><rect x="358.0" y="44" width="11.5" height="26" rx="2.5" class="ai"/><rect x="371.1" y="44" width="11.5" height="26" rx="2.5" class="ai"/><rect x="384.2" y="44" width="11.5" height="26" rx="2.5" class="ai"/><rect x="397.3" y="44" width="11.5" height="26" rx="2.5" class="ai"/><rect x="410.4" y="44" width="11.5" height="26" rx="2.5" class="ai"/><rect x="423.5" y="44" width="11.5" height="26" rx="2.5" class="ai"/><rect x="436.6" y="44" width="11.5" height="26" rx="2.5" class="ai"/><rect x="449.7" y="44" width="11.5" height="26" rx="2.5" class="ai"/><rect x="462.8" y="44" width="11.5" height="26" rx="2.5" class="ai"/><rect x="475.9" y="44" width="11.5" height="26" rx="2.5" class="ai"/><rect x="489.0" y="44" width="11.5" height="26" rx="2.5" class="ai"/><rect x="502.1" y="44" width="11.5" height="26" rx="2.5" class="ai"/><rect x="515.2" y="44" width="11.5" height="26" rx="2.5" class="ai"/><rect x="528.3" y="44" width="11.5" height="26" rx="2.5" class="ai"/><rect x="541.4" y="44" width="11.5" height="26" rx="2.5" class="shared"/><rect x="554.5" y="44" width="11.5" height="26" rx="2.5" class="ai"/><rect x="567.6" y="44" width="11.5" height="26" rx="2.5" class="ai"/><rect x="580.7" y="44" width="11.5" height="26" rx="2.5" class="ai"/><rect x="593.8" y="44" width="11.5" height="26" rx="2.5" class="shared"/><rect x="606.9" y="44" width="11.5" height="26" rx="2.5" class="shared"/><rect x="620.0" y="44" width="11.5" height="26" rx="2.5" class="ai"/><text x="0" y="96.0" class="ink">Choice</text><rect x="96.0" y="78" width="11.5" height="26" rx="2.5" class="you"/><rect x="109.1" y="78" width="11.5" height="26" rx="2.5" class="shared"/><rect x="122.2" y="78" width="11.5" height="26" rx="2.5" class="you"/><rect x="135.3" y="78" width="11.5" height="26" rx="2.5" class="you"/><rect x="148.4" y="78" width="11.5" height="26" rx="2.5" class="you"/><rect x="161.5" y="78" width="11.5" height="26" rx="2.5" class="you"/><rect x="174.6" y="78" width="11.5" height="26" rx="2.5" class="you"/><rect x="187.7" y="78" width="11.5" height="26" rx="2.5" class="you"/><rect x="200.8" y="78" width="11.5" height="26" rx="2.5" class="you"/><rect x="213.9" y="78" width="11.5" height="26" rx="2.5" class="you"/><rect x="227.0" y="78" width="11.5" height="26" rx="2.5" class="you"/><rect x="240.1" y="78" width="11.5" height="26" rx="2.5" class="you"/><rect x="253.2" y="78" width="11.5" height="26" rx="2.5" class="you"/><rect x="266.3" y="78" width="11.5" height="26" rx="2.5" class="shared"/><rect x="279.4" y="78" width="11.5" height="26" rx="2.5" class="you"/><rect x="292.5" y="78" width="11.5" height="26" rx="2.5" class="you"/><rect x="305.6" y="78" width="11.5" height="26" rx="2.5" class="you"/><rect x="318.7" y="78" width="11.5" height="26" rx="2.5" class="you"/><rect x="331.8" y="78" width="11.5" height="26" rx="2.5" class="you"/><rect x="344.9" y="78" width="11.5" height="26" rx="2.5" class="you"/><rect x="358.0" y="78" width="11.5" height="26" rx="2.5" class="you"/><rect x="371.1" y="78" width="11.5" height="26" rx="2.5" class="you"/><rect x="384.2" y="78" width="11.5" height="26" rx="2.5" class="you"/><rect x="397.3" y="78" width="11.5" height="26" rx="2.5" class="you"/><rect x="410.4" y="78" width="11.5" height="26" rx="2.5" class="you"/><rect x="423.5" y="78" width="11.5" height="26" rx="2.5" class="you"/><rect x="436.6" y="78" width="11.5" height="26" rx="2.5" class="you"/><rect x="449.7" y="78" width="11.5" height="26" rx="2.5" class="you"/><rect x="462.8" y="78" width="11.5" height="26" rx="2.5" class="you"/><rect x="475.9" y="78" width="11.5" height="26" rx="2.5" class="you"/><rect x="489.0" y="78" width="11.5" height="26" rx="2.5" class="you"/><rect x="502.1" y="78" width="11.5" height="26" rx="2.5" class="you"/><rect x="515.2" y="78" width="11.5" height="26" rx="2.5" class="you"/><rect x="528.3" y="78" width="11.5" height="26" rx="2.5" class="you"/><rect x="541.4" y="78" width="11.5" height="26" rx="2.5" class="you"/><rect x="554.5" y="78" width="11.5" height="26" rx="2.5" class="you"/><rect x="567.6" y="78" width="11.5" height="26" rx="2.5" class="you"/><rect x="580.7" y="78" width="11.5" height="26" rx="2.5" class="you"/><rect x="593.8" y="78" width="11.5" height="26" rx="2.5" class="you"/><rect x="606.9" y="78" width="11.5" height="26" rx="2.5" class="you"/><rect x="620.0" y="78" width="11.5" height="26" rx="2.5" class="you"/><text x="0" y="130.0" class="ink">Refinement</text><rect x="96.0" y="112" width="11.5" height="26" rx="2.5" class="shared"/><rect x="109.1" y="112" width="11.5" height="26" rx="2.5" class="shared"/><rect x="122.2" y="112" width="11.5" height="26" rx="2.5" class="you"/><rect x="135.3" y="112" width="11.5" height="26" rx="2.5" class="you"/><rect x="148.4" y="112" width="11.5" height="26" rx="2.5" class="shared"/><rect x="161.5" y="112" width="11.5" height="26" rx="2.5" class="shared"/><rect x="174.6" y="112" width="11.5" height="26" rx="2.5" class="shared"/><rect x="187.7" y="112" width="11.5" height="26" rx="2.5" class="shared"/><rect x="200.8" y="112" width="11.5" height="26" rx="2.5" class="shared"/><rect x="213.9" y="112" width="11.5" height="26" rx="2.5" class="shared"/><rect x="227.0" y="112" width="11.5" height="26" rx="2.5" class="shared"/><rect x="240.1" y="112" width="11.5" height="26" rx="2.5" class="shared"/><rect x="253.2" y="112" width="11.5" height="26" rx="2.5" class="shared"/><rect x="266.3" y="112" width="11.5" height="26" rx="2.5" class="shared"/><rect x="279.4" y="112" width="11.5" height="26" rx="2.5" class="shared"/><rect x="292.5" y="112" width="11.5" height="26" rx="2.5" class="shared"/><rect x="305.6" y="112" width="11.5" height="26" rx="2.5" class="shared"/><rect x="318.7" y="112" width="11.5" height="26" rx="2.5" class="shared"/><rect x="331.8" y="112" width="11.5" height="26" rx="2.5" class="shared"/><rect x="344.9" y="112" width="11.5" height="26" rx="2.5" class="shared"/><rect x="358.0" y="112" width="11.5" height="26" rx="2.5" class="you"/><rect x="371.1" y="112" width="11.5" height="26" rx="2.5" class="shared"/><rect x="384.2" y="112" width="11.5" height="26" rx="2.5" class="shared"/><rect x="397.3" y="112" width="11.5" height="26" rx="2.5" class="shared"/><rect x="410.4" y="112" width="11.5" height="26" rx="2.5" class="shared"/><rect x="423.5" y="112" width="11.5" height="26" rx="2.5" class="shared"/><rect x="436.6" y="112" width="11.5" height="26" rx="2.5" class="shared"/><rect x="449.7" y="112" width="11.5" height="26" rx="2.5" class="shared"/><rect x="462.8" y="112" width="11.5" height="26" rx="2.5" class="shared"/><rect x="475.9" y="112" width="11.5" height="26" rx="2.5" class="shared"/><rect x="489.0" y="112" width="11.5" height="26" rx="2.5" class="shared"/><rect x="502.1" y="112" width="11.5" height="26" rx="2.5" class="shared"/><rect x="515.2" y="112" width="11.5" height="26" rx="2.5" class="shared"/><rect x="528.3" y="112" width="11.5" height="26" rx="2.5" class="shared"/><rect x="541.4" y="112" width="11.5" height="26" rx="2.5" class="shared"/><rect x="554.5" y="112" width="11.5" height="26" rx="2.5" class="you"/><rect x="567.6" y="112" width="11.5" height="26" rx="2.5" class="shared"/><rect x="580.7" y="112" width="11.5" height="26" rx="2.5" class="shared"/><rect x="593.8" y="112" width="11.5" height="26" rx="2.5" class="shared"/><rect x="606.9" y="112" width="11.5" height="26" rx="2.5" class="shared"/><rect x="620.0" y="112" width="11.5" height="26" rx="2.5" class="shared"/><rect x="96" y="160" width="12" height="12" rx="2.5" class="you"/><text x="114" y="171">me</text><rect x="231" y="160" width="12" height="12" rx="2.5" class="shared"/><text x="249" y="171">both of us</text><rect x="366" y="160" width="12" height="12" rx="2.5" class="ai"/><text x="384" y="171">Claude</text><rect x="501" y="160" width="12" height="12" rx="2.5" class="unknown"/><text x="519" y="171">lost to history</text></svg>
