<svg xmlns="http://www.w3.org/2000/svg" viewBox="0 0 640 280" width="640" height="280" role="img"><title>Running total of times I typed “merge if you’re happy” or “merge when you’re happy”, June to October</title><style>
svg{--ink:#1d1b18;--muted:#6a6359;--grid:#e7dfd2;--you:#1a6aa8;--ai:#d4682a;--shared:#7a5bb0;--unknown:#b3aca2;--fable:#2a8a5e}
@media (prefers-color-scheme: dark){svg{--ink:#ece8e1;--muted:#a39d93;--grid:#2e3137;--you:#3f8fcf;--ai:#d9773a;--shared:#9278d4;--unknown:#5b5f66;--fable:#3a9e70}}
text{font-family:system-ui,-apple-system,"Segoe UI",Roboto,sans-serif;font-size:15px;fill:var(--muted)}
.ink{fill:var(--ink)} .b{font-weight:600} .s{font-size:13.5px}
.grid{stroke:var(--grid);stroke-width:1} .you{fill:var(--you)} .ai{fill:var(--ai)} .shared{fill:var(--shared)} .unknown{fill:var(--unknown)} .fable{fill:var(--fable)} .sopus{stroke:var(--ai)} .ssonnet{stroke:var(--shared)} .sfable{stroke:var(--fable)}
.lyou{stroke:var(--you)} .lai{stroke:var(--ai)} .mark{stroke:var(--muted);stroke-dasharray:4 4;stroke-width:1}
</style><line class="grid" x1="48" x2="580" y1="246.0" y2="246.0"/><text x="40" y="250.0" text-anchor="end">0</text><line class="grid" x1="48" x2="580" y1="200.8" y2="200.8"/><text x="40" y="204.8" text-anchor="end">100</text><line class="grid" x1="48" x2="580" y1="155.6" y2="155.6"/><text x="40" y="159.6" text-anchor="end">200</text><line class="grid" x1="48" x2="580" y1="110.4" y2="110.4"/><text x="40" y="114.4" text-anchor="end">300</text><line class="grid" x1="48" x2="580" y1="65.19999999999999" y2="65.19999999999999"/><text x="40" y="69.19999999999999" text-anchor="end">400</text><line class="grid" x1="48" x2="580" y1="20.0" y2="20.0"/><text x="40" y="24.0" text-anchor="end">500</text><text x="48.0" y="268" text-anchor="middle">Jun</text><text x="170.76923076923077" y="268" text-anchor="middle">Jul</text><text x="297.63076923076926" y="268" text-anchor="middle">Aug</text><text x="424.4923076923077" y="268" text-anchor="middle">Sep</text><text x="547.2615384615385" y="268" text-anchor="middle">Oct</text><path d="M48.0,246.0 L68.5,246.0 L68.5,245.5 L72.6,245.1 L72.6,244.6 L84.8,244.2 L84.8,243.7 L88.9,243.3 L88.9,242.8 L93.0,242.4 L93.0,241.9 L93.0,241.5 L105.3,241.0 L109.4,240.6 L109.4,240.1 L109.4,239.7 L109.4,239.2 L109.4,238.8 L109.4,238.3 L109.4,237.9 L109.4,237.4 L113.5,237.0 L113.5,236.5 L113.5,236.1 L113.5,235.6 L113.5,235.2 L113.5,234.7 L117.6,234.2 L117.6,233.8 L117.6,233.3 L117.6,232.9 L121.7,232.4 L121.7,232.0 L121.7,231.5 L121.7,231.1 L121.7,230.6 L121.7,230.2 L125.8,229.7 L125.8,229.3 L125.8,228.8 L125.8,228.4 L125.8,227.9 L125.8,227.5 L125.8,227.0 L125.8,226.6 L125.8,226.1 L125.8,225.7 L125.8,225.2 L125.8,224.8 L125.8,224.3 L125.8,223.9 L125.8,223.4 L125.8,222.9 L125.8,222.5 L129.8,222.0 L129.8,221.6 L129.8,221.1 L129.8,220.7 L129.8,220.2 L129.8,219.8 L129.8,219.3 L129.8,218.9 L129.8,218.4 L129.8,218.0 L133.9,217.5 L133.9,217.1 L133.9,216.6 L133.9,216.2 L133.9,215.7 L133.9,215.3 L133.9,214.8 L133.9,214.4 L133.9,213.9 L133.9,213.5 L133.9,213.0 L133.9,212.6 L133.9,212.1 L133.9,211.6 L133.9,211.2 L133.9,210.7 L133.9,210.3 L133.9,209.8 L133.9,209.4 L133.9,208.9 L133.9,208.5 L133.9,208.0 L133.9,207.6 L133.9,207.1 L133.9,206.7 L133.9,206.2 L138.0,205.8 L138.0,205.3 L138.0,204.9 L138.0,204.4 L138.0,204.0 L138.0,203.5 L138.0,203.1 L138.0,202.6 L138.0,202.2 L138.0,201.7 L138.0,201.3 L138.0,200.8 L138.0,200.3 L142.1,199.9 L142.1,199.4 L142.1,199.0 L142.1,198.5 L142.1,198.1 L142.1,197.6 L142.1,197.2 L142.1,196.7 L142.1,196.3 L142.1,195.8 L142.1,195.4 L142.1,194.9 L142.1,194.5 L142.1,194.0 L146.2,193.6 L146.2,193.1 L146.2,192.7 L146.2,192.2 L146.2,191.8 L146.2,191.3 L146.2,190.9 L146.2,190.4 L146.2,190.0 L146.2,189.5 L146.2,189.0 L146.2,188.6 L146.2,188.1 L146.2,187.7 L146.2,187.2 L150.3,186.8 L150.3,186.3 L150.3,185.9 L150.3,185.4 L150.3,185.0 L150.3,184.5 L150.3,184.1 L150.3,183.6 L150.3,183.2 L150.3,182.7 L154.4,182.3 L154.4,181.8 L154.4,181.4 L158.5,180.9 L158.5,180.5 L158.5,180.0 L158.5,179.6 L158.5,179.1 L162.6,178.7 L162.6,178.2 L162.6,177.7 L162.6,177.3 L174.9,176.8 L174.9,176.4 L179.0,175.9 L183.0,175.5 L183.0,175.0 L183.0,174.6 L183.0,174.1 L183.0,173.7 L187.1,173.2 L187.1,172.8 L187.1,172.3 L187.1,171.9 L187.1,171.4 L191.2,171.0 L191.2,170.5 L191.2,170.1 L191.2,169.6 L191.2,169.2 L191.2,168.7 L191.2,168.3 L195.3,167.8 L195.3,167.4 L199.4,166.9 L199.4,166.4 L199.4,166.0 L199.4,165.5 L199.4,165.1 L199.4,164.6 L203.5,164.2 L203.5,163.7 L203.5,163.3 L207.6,162.8 L207.6,162.4 L211.7,161.9 L211.7,161.5 L211.7,161.0 L211.7,160.6 L211.7,160.1 L211.7,159.7 L215.8,159.2 L215.8,158.8 L215.8,158.3 L215.8,157.9 L215.8,157.4 L215.8,157.0 L215.8,156.5 L215.8,156.1 L215.8,155.6 L215.8,155.1 L215.8,154.7 L215.8,154.2 L224.0,153.8 L228.1,153.3 L228.1,152.9 L228.1,152.4 L228.1,152.0 L228.1,151.5 L228.1,151.1 L232.2,150.6 L232.2,150.2 L232.2,149.7 L232.2,149.3 L232.2,148.8 L232.2,148.4 L232.2,147.9 L232.2,147.5 L232.2,147.0 L236.2,146.6 L240.3,146.1 L240.3,145.7 L240.3,145.2 L240.3,144.8 L240.3,144.3 L244.4,143.8 L244.4,143.4 L244.4,142.9 L244.4,142.5 L244.4,142.0 L248.5,141.6 L248.5,141.1 L252.6,140.7 L252.6,140.2 L252.6,139.8 L252.6,139.3 L252.6,138.9 L256.7,138.4 L256.7,138.0 L256.7,137.5 L256.7,137.1 L256.7,136.6 L256.7,136.2 L256.7,135.7 L260.8,135.3 L260.8,134.8 L260.8,134.4 L260.8,133.9 L260.8,133.5 L260.8,133.0 L260.8,132.5 L260.8,132.1 L260.8,131.6 L260.8,131.2 L260.8,130.7 L260.8,130.3 L260.8,129.8 L264.9,129.4 L264.9,128.9 L264.9,128.5 L264.9,128.0 L264.9,127.6 L264.9,127.1 L269.0,126.7 L269.0,126.2 L269.0,125.8 L273.1,125.3 L273.1,124.9 L273.1,124.4 L273.1,124.0 L277.2,123.5 L277.2,123.1 L285.4,122.6 L289.4,122.2 L289.4,121.7 L289.4,121.2 L289.4,120.8 L289.4,120.3 L289.4,119.9 L289.4,119.4 L289.4,119.0 L289.4,118.5 L289.4,118.1 L293.5,117.6 L293.5,117.2 L293.5,116.7 L293.5,116.3 L293.5,115.8 L293.5,115.4 L293.5,114.9 L293.5,114.5 L297.6,114.0 L297.6,113.6 L297.6,113.1 L297.6,112.7 L297.6,112.2 L297.6,111.8 L297.6,111.3 L297.6,110.9 L297.6,110.4 L301.7,109.9 L301.7,109.5 L301.7,109.0 L301.7,108.6 L301.7,108.1 L301.7,107.7 L301.7,107.2 L305.8,106.8 L305.8,106.3 L305.8,105.9 L305.8,105.4 L305.8,105.0 L305.8,104.5 L305.8,104.1 L305.8,103.6 L305.8,103.2 L305.8,102.7 L305.8,102.3 L305.8,101.8 L305.8,101.4 L305.8,100.9 L305.8,100.5 L305.8,100.0 L305.8,99.6 L305.8,99.1 L309.9,98.6 L309.9,98.2 L309.9,97.7 L309.9,97.3 L309.9,96.8 L309.9,96.4 L309.9,95.9 L309.9,95.5 L309.9,95.0 L309.9,94.6 L309.9,94.1 L314.0,93.7 L314.0,93.2 L314.0,92.8 L314.0,92.3 L314.0,91.9 L314.0,91.4 L314.0,91.0 L314.0,90.5 L314.0,90.1 L314.0,89.6 L314.0,89.2 L314.0,88.7 L314.0,88.3 L318.1,87.8 L318.1,87.3 L318.1,86.9 L318.1,86.4 L318.1,86.0 L318.1,85.5 L318.1,85.1 L318.1,84.6 L318.1,84.2 L318.1,83.7 L318.1,83.3 L318.1,82.8 L318.1,82.4 L318.1,81.9 L318.1,81.5 L322.2,81.0 L322.2,80.6 L322.2,80.1 L322.2,79.7 L322.2,79.2 L322.2,78.8 L322.2,78.3 L322.2,77.9 L322.2,77.4 L322.2,77.0 L322.2,76.5 L322.2,76.0 L322.2,75.6 L322.2,75.1 L322.2,74.7 L322.2,74.2 L322.2,73.8 L322.2,73.3 L326.3,72.9 L326.3,72.4 L326.3,72.0 L326.3,71.5 L326.3,71.1 L326.3,70.6 L326.3,70.2 L326.3,69.7 L326.3,69.3 L326.3,68.8 L326.3,68.4 L346.7,67.9 L350.8,67.5 L363.1,67.0 L367.2,66.6 L367.2,66.1 L367.2,65.7 L367.2,65.2 L367.2,64.7 L371.3,64.3 L371.3,63.8 L371.3,63.4 L371.3,62.9 L371.3,62.5 L371.3,62.0 L375.4,61.6 L375.4,61.1 L383.6,60.7 L387.7,60.2 L387.7,59.8 L387.7,59.3 L387.7,58.9 L387.7,58.4 L391.8,58.0 L391.8,57.5 L391.8,57.1 L391.8,56.6 L395.8,56.2 L395.8,55.7 L395.8,55.3 L395.8,54.8 L399.9,54.4 L404.0,53.9 L404.0,53.4 L404.0,53.0 L408.1,52.5 L408.1,52.1 L420.4,51.6 L420.4,51.2 L420.4,50.7 L420.4,50.3 L424.5,49.8 L424.5,49.4 L424.5,48.9 L428.6,48.5 L428.6,48.0 L428.6,47.6 L432.7,47.1 L432.7,46.7 L436.8,46.2 L436.8,45.8 L440.9,45.3 L469.5,44.9 L506.3,44.4 L555.4,44.0 L559.5,43.5 L563.6,43.1 L563.6,42.6 L563.6,42.1 L580.0,42.1 L580.0,246.0 L48.0,246.0 Z" class="you" fill-opacity="0.15"/><path d="M48.0,246.0 L68.5,246.0 L68.5,245.5 L72.6,245.1 L72.6,244.6 L84.8,244.2 L84.8,243.7 L88.9,243.3 L88.9,242.8 L93.0,242.4 L93.0,241.9 L93.0,241.5 L105.3,241.0 L109.4,240.6 L109.4,240.1 L109.4,239.7 L109.4,239.2 L109.4,238.8 L109.4,238.3 L109.4,237.9 L109.4,237.4 L113.5,237.0 L113.5,236.5 L113.5,236.1 L113.5,235.6 L113.5,235.2 L113.5,234.7 L117.6,234.2 L117.6,233.8 L117.6,233.3 L117.6,232.9 L121.7,232.4 L121.7,232.0 L121.7,231.5 L121.7,231.1 L121.7,230.6 L121.7,230.2 L125.8,229.7 L125.8,229.3 L125.8,228.8 L125.8,228.4 L125.8,227.9 L125.8,227.5 L125.8,227.0 L125.8,226.6 L125.8,226.1 L125.8,225.7 L125.8,225.2 L125.8,224.8 L125.8,224.3 L125.8,223.9 L125.8,223.4 L125.8,222.9 L125.8,222.5 L129.8,222.0 L129.8,221.6 L129.8,221.1 L129.8,220.7 L129.8,220.2 L129.8,219.8 L129.8,219.3 L129.8,218.9 L129.8,218.4 L129.8,218.0 L133.9,217.5 L133.9,217.1 L133.9,216.6 L133.9,216.2 L133.9,215.7 L133.9,215.3 L133.9,214.8 L133.9,214.4 L133.9,213.9 L133.9,213.5 L133.9,213.0 L133.9,212.6 L133.9,212.1 L133.9,211.6 L133.9,211.2 L133.9,210.7 L133.9,210.3 L133.9,209.8 L133.9,209.4 L133.9,208.9 L133.9,208.5 L133.9,208.0 L133.9,207.6 L133.9,207.1 L133.9,206.7 L133.9,206.2 L138.0,205.8 L138.0,205.3 L138.0,204.9 L138.0,204.4 L138.0,204.0 L138.0,203.5 L138.0,203.1 L138.0,202.6 L138.0,202.2 L138.0,201.7 L138.0,201.3 L138.0,200.8 L138.0,200.3 L142.1,199.9 L142.1,199.4 L142.1,199.0 L142.1,198.5 L142.1,198.1 L142.1,197.6 L142.1,197.2 L142.1,196.7 L142.1,196.3 L142.1,195.8 L142.1,195.4 L142.1,194.9 L142.1,194.5 L142.1,194.0 L146.2,193.6 L146.2,193.1 L146.2,192.7 L146.2,192.2 L146.2,191.8 L146.2,191.3 L146.2,190.9 L146.2,190.4 L146.2,190.0 L146.2,189.5 L146.2,189.0 L146.2,188.6 L146.2,188.1 L146.2,187.7 L146.2,187.2 L150.3,186.8 L150.3,186.3 L150.3,185.9 L150.3,185.4 L150.3,185.0 L150.3,184.5 L150.3,184.1 L150.3,183.6 L150.3,183.2 L150.3,182.7 L154.4,182.3 L154.4,181.8 L154.4,181.4 L158.5,180.9 L158.5,180.5 L158.5,180.0 L158.5,179.6 L158.5,179.1 L162.6,178.7 L162.6,178.2 L162.6,177.7 L162.6,177.3 L174.9,176.8 L174.9,176.4 L179.0,175.9 L183.0,175.5 L183.0,175.0 L183.0,174.6 L183.0,174.1 L183.0,173.7 L187.1,173.2 L187.1,172.8 L187.1,172.3 L187.1,171.9 L187.1,171.4 L191.2,171.0 L191.2,170.5 L191.2,170.1 L191.2,169.6 L191.2,169.2 L191.2,168.7 L191.2,168.3 L195.3,167.8 L195.3,167.4 L199.4,166.9 L199.4,166.4 L199.4,166.0 L199.4,165.5 L199.4,165.1 L199.4,164.6 L203.5,164.2 L203.5,163.7 L203.5,163.3 L207.6,162.8 L207.6,162.4 L211.7,161.9 L211.7,161.5 L211.7,161.0 L211.7,160.6 L211.7,160.1 L211.7,159.7 L215.8,159.2 L215.8,158.8 L215.8,158.3 L215.8,157.9 L215.8,157.4 L215.8,157.0 L215.8,156.5 L215.8,156.1 L215.8,155.6 L215.8,155.1 L215.8,154.7 L215.8,154.2 L224.0,153.8 L228.1,153.3 L228.1,152.9 L228.1,152.4 L228.1,152.0 L228.1,151.5 L228.1,151.1 L232.2,150.6 L232.2,150.2 L232.2,149.7 L232.2,149.3 L232.2,148.8 L232.2,148.4 L232.2,147.9 L232.2,147.5 L232.2,147.0 L236.2,146.6 L240.3,146.1 L240.3,145.7 L240.3,145.2 L240.3,144.8 L240.3,144.3 L244.4,143.8 L244.4,143.4 L244.4,142.9 L244.4,142.5 L244.4,142.0 L248.5,141.6 L248.5,141.1 L252.6,140.7 L252.6,140.2 L252.6,139.8 L252.6,139.3 L252.6,138.9 L256.7,138.4 L256.7,138.0 L256.7,137.5 L256.7,137.1 L256.7,136.6 L256.7,136.2 L256.7,135.7 L260.8,135.3 L260.8,134.8 L260.8,134.4 L260.8,133.9 L260.8,133.5 L260.8,133.0 L260.8,132.5 L260.8,132.1 L260.8,131.6 L260.8,131.2 L260.8,130.7 L260.8,130.3 L260.8,129.8 L264.9,129.4 L264.9,128.9 L264.9,128.5 L264.9,128.0 L264.9,127.6 L264.9,127.1 L269.0,126.7 L269.0,126.2 L269.0,125.8 L273.1,125.3 L273.1,124.9 L273.1,124.4 L273.1,124.0 L277.2,123.5 L277.2,123.1 L285.4,122.6 L289.4,122.2 L289.4,121.7 L289.4,121.2 L289.4,120.8 L289.4,120.3 L289.4,119.9 L289.4,119.4 L289.4,119.0 L289.4,118.5 L289.4,118.1 L293.5,117.6 L293.5,117.2 L293.5,116.7 L293.5,116.3 L293.5,115.8 L293.5,115.4 L293.5,114.9 L293.5,114.5 L297.6,114.0 L297.6,113.6 L297.6,113.1 L297.6,112.7 L297.6,112.2 L297.6,111.8 L297.6,111.3 L297.6,110.9 L297.6,110.4 L301.7,109.9 L301.7,109.5 L301.7,109.0 L301.7,108.6 L301.7,108.1 L301.7,107.7 L301.7,107.2 L305.8,106.8 L305.8,106.3 L305.8,105.9 L305.8,105.4 L305.8,105.0 L305.8,104.5 L305.8,104.1 L305.8,103.6 L305.8,103.2 L305.8,102.7 L305.8,102.3 L305.8,101.8 L305.8,101.4 L305.8,100.9 L305.8,100.5 L305.8,100.0 L305.8,99.6 L305.8,99.1 L309.9,98.6 L309.9,98.2 L309.9,97.7 L309.9,97.3 L309.9,96.8 L309.9,96.4 L309.9,95.9 L309.9,95.5 L309.9,95.0 L309.9,94.6 L309.9,94.1 L314.0,93.7 L314.0,93.2 L314.0,92.8 L314.0,92.3 L314.0,91.9 L314.0,91.4 L314.0,91.0 L314.0,90.5 L314.0,90.1 L314.0,89.6 L314.0,89.2 L314.0,88.7 L314.0,88.3 L318.1,87.8 L318.1,87.3 L318.1,86.9 L318.1,86.4 L318.1,86.0 L318.1,85.5 L318.1,85.1 L318.1,84.6 L318.1,84.2 L318.1,83.7 L318.1,83.3 L318.1,82.8 L318.1,82.4 L318.1,81.9 L318.1,81.5 L322.2,81.0 L322.2,80.6 L322.2,80.1 L322.2,79.7 L322.2,79.2 L322.2,78.8 L322.2,78.3 L322.2,77.9 L322.2,77.4 L322.2,77.0 L322.2,76.5 L322.2,76.0 L322.2,75.6 L322.2,75.1 L322.2,74.7 L322.2,74.2 L322.2,73.8 L322.2,73.3 L326.3,72.9 L326.3,72.4 L326.3,72.0 L326.3,71.5 L326.3,71.1 L326.3,70.6 L326.3,70.2 L326.3,69.7 L326.3,69.3 L326.3,68.8 L326.3,68.4 L346.7,67.9 L350.8,67.5 L363.1,67.0 L367.2,66.6 L367.2,66.1 L367.2,65.7 L367.2,65.2 L367.2,64.7 L371.3,64.3 L371.3,63.8 L371.3,63.4 L371.3,62.9 L371.3,62.5 L371.3,62.0 L375.4,61.6 L375.4,61.1 L383.6,60.7 L387.7,60.2 L387.7,59.8 L387.7,59.3 L387.7,58.9 L387.7,58.4 L391.8,58.0 L391.8,57.5 L391.8,57.1 L391.8,56.6 L395.8,56.2 L395.8,55.7 L395.8,55.3 L395.8,54.8 L399.9,54.4 L404.0,53.9 L404.0,53.4 L404.0,53.0 L408.1,52.5 L408.1,52.1 L420.4,51.6 L420.4,51.2 L420.4,50.7 L420.4,50.3 L424.5,49.8 L424.5,49.4 L424.5,48.9 L428.6,48.5 L428.6,48.0 L428.6,47.6 L432.7,47.1 L432.7,46.7 L436.8,46.2 L436.8,45.8 L440.9,45.3 L469.5,44.9 L506.3,44.4 L555.4,44.0 L559.5,43.5 L563.6,43.1 L563.6,42.6 L563.6,42.1 L580.0,42.1" fill="none" class="lyou" stroke-width="2.5" stroke-linejoin="round"/><circle cx="68.5" cy="245.5" r="4" class="you"/><line x1="68.5" x2="68.5" y1="239.5" y2="155.6" class="mark"/><text x="64.5" y="149.6" class="ink s">6 June: the first one</text><circle cx="580.0" cy="42.1" r="4" class="you"/><text x="588.0" y="47.1" class="ink b">451</text><text x="432.7" y="68.1" class="s">September: fewer,</text><text x="432.7" y="84.1" class="s">bigger sessions</text></svg>
